<?xml version="1.0" encoding="utf-8"?>
<!-- Generator: Adobe Illustrator 25.0.0, SVG Export Plug-In . SVG Version: 6.00 Build 0)  -->
<svg version="1.1" id="Layer_1" xmlns="http://www.w3.org/2000/svg" xmlns:xlink="http://www.w3.org/1999/xlink" x="0px" y="0px"
	 width="185px" height="60px" viewBox="0 0 185 60" style="enable-background:new 0 0 185 60;" xml:space="preserve">
<style type="text/css">
	.st0{fill:#FFFFFF;}
</style>
<g>
	<path class="st0" d="M34,46.3L8.9,1.3v29.3c0,14.1,11.4,25.6,25.6,25.6h0c14.1,0,25.6-11.4,25.6-25.6V0h0L34,46.3z"/>
	<path class="st0" d="M5.1,30.6V0H0.4v30.6C0.4,46.8,13.5,60,29.7,60h4.8C18.3,60,5.1,46.8,5.1,30.6z"/>
	<path class="st0" d="M63.9,0v30.6C63.9,46.8,50.7,60,34.5,60h4.8c16.2,0,29.4-13.2,29.4-29.4V0H63.9z"/>
	<polygon class="st0" points="34.5,15.7 40.4,15.9 34,28.1 22.7,7.5 52.6,7.5 56.8,0 11.4,0 34,40.5 50.6,11 31.8,11 	"/>
	<path class="st0" d="M99.7,0v28.2c0,4.9-3.9,8.8-8.8,8.8c-4.9,0-8.8-3.9-8.8-8.8V0h-7.4v27.7c0,8.9,7.2,16.2,16.2,16.2h0
		c8.9,0,16.2-7.2,16.2-16.2V0H99.7z"/>
	<path class="st0" d="M126.9,20.1v6.6h6.8v3.9c0,3.7-3,6.8-6.8,6.8h-2.4c-3.7,0-6.8-3-6.8-6.8V14.1c0-4.2,3.4-7.6,7.6-7.6h5
		c2.1,0,5.4,3,5.5,3.2l2.3-3.2l1.2-1.6c-1.9-2.4-6.1-4.9-10.7-4.9h-3.5c-8,0-14.5,6.5-14.5,14.5V30c0,7.7,6.2,13.9,13.9,13.9h5.2
		c5.9,0,10.6-4.8,10.6-10.6V20.1H126.9z"/>
	<polygon class="st0" points="177.8,0 165,28.4 151,0 144.2,0 144.2,3.1 144.2,43.9 151,43.9 151,16.6 160.9,36.1 167.9,36.1 
		177.8,16.6 177.8,43.9 184.6,43.9 184.6,3.1 184.6,0 	"/>
	<g>
		<path class="st0" d="M79.4,48.9c2.3,0,3.2,1.7,3.2,3.4c0,1.1-0.7,2.3-1.7,2.9l1.9,4.3h-2.6l-1.6-3.9h-1.5v3.9h-2.4V48.9H79.4z
			 M77.1,53.5h1.8c0.9,0,1.3-0.5,1.3-1.2c0-0.7-0.4-1.2-1.3-1.2h-1.8V53.5z"/>
		<path class="st0" d="M87.1,48.9h7.4v2.2h-4.9v2h4.2v2.2h-4.2v2.1h4.9v2.2h-7.4V48.9z"/>
		<path class="st0" d="M101.6,53.4v6.1h-2.4V48.9h2.2l1.8,2.6l2.3,3.5h0v-6.1h2.4v10.6h-2.2l-2.2-3.2L101.6,53.4L101.6,53.4z"/>
		<path class="st0" d="M117.2,51.1v8.4h-2.4v-8.4H112v-2.2h7.8v2.2H117.2z"/>
		<path class="st0" d="M136.9,57.4h-3.4l-0.6,2.1h-2.6l3.7-10.6h2.5l3.7,10.6h-2.6L136.9,57.4z M134.1,55.4h2.2l-0.2-0.7l-0.8-2.9
			h-0.1l-0.8,2.9L134.1,55.4z"/>
		<path class="st0" d="M157.6,51.8c-0.7-0.6-1.4-0.7-2.1-0.7c-0.8,0-1.7,0.4-1.7,1.7v3c0,1.2,1,1.7,1.8,1.7c0.7,0,1.3-0.1,2.1-0.7
			l1.2,1.9c-0.9,0.7-2.1,1.1-3.3,1.1c-2,0-4.1-1-4.1-3.4v-4c0-2.3,2.1-3.4,4.1-3.4c1.2,0,2.5,0.3,3.4,1.1L157.6,51.8z"/>
		<path class="st0" d="M169.1,57.4h-3.4l-0.6,2.1h-2.6l3.7-10.6h2.5l3.7,10.6h-2.6L169.1,57.4z M166.3,55.4h2.2l-0.2-0.7l-0.8-2.9
			h-0.1l-0.8,2.9L166.3,55.4z"/>
		<path class="st0" d="M181.2,48.9c2.3,0,3.2,1.7,3.2,3.4c0,1.1-0.7,2.3-1.7,2.9l1.9,4.3H182l-1.6-3.9h-1.5v3.9h-2.4V48.9H181.2z
			 M178.9,53.5h1.8c0.9,0,1.3-0.5,1.3-1.2c0-0.7-0.4-1.2-1.3-1.2h-1.8V53.5z"/>
	</g>
</g>
</svg>
